<svg width="21" height="21" viewBox="0 0 21 21" fill="none" xmlns="http://www.w3.org/2000/svg">
<path d="M12.958 5.49023H8.04335C6.64256 5.49023 5.50293 6.62986 5.50293 8.03065V12.9453C5.50293 14.3461 6.64256 15.4857 8.04335 15.4857H12.958C14.3588 15.4857 15.4984 14.3461 15.4984 12.9453V8.03065C15.4984 6.62986 14.3588 5.49023 12.958 5.49023ZM10.5541 13.5151C8.88026 13.5151 7.52102 12.1559 7.52102 10.482C7.52102 8.80821 8.88026 7.44897 10.5541 7.44897C12.2279 7.44897 13.5872 8.80821 13.5872 10.482C13.5812 12.1559 12.222 13.5151 10.5541 13.5151ZM13.7593 7.9713C13.3616 7.9713 13.0351 7.65078 13.0351 7.24716C13.0351 6.84948 13.3557 6.52302 13.7593 6.52302C14.157 6.52302 14.4834 6.84354 14.4834 7.24716C14.4834 7.65078 14.157 7.9713 13.7593 7.9713Z" fill="#464646"/>
<path d="M10.5532 8.54102C9.48483 8.54102 8.6123 9.41354 8.6123 10.4819C8.6123 11.5503 9.48483 12.4229 10.5532 12.4229C11.6216 12.4229 12.4942 11.5503 12.4942 10.4819C12.4942 9.41354 11.6216 8.54102 10.5532 8.54102Z" fill="#464646"/>
<path d="M10.5 0C4.70096 0 0 4.70096 0 10.5C0 16.299 4.70096 21 10.5 21C16.299 21 21 16.299 21 10.5C21 4.70096 16.299 0 10.5 0ZM16.6552 12.9454C16.6552 14.9873 14.9932 16.6433 12.9573 16.6433H8.04268C6.00085 16.6433 4.34483 14.9873 4.34483 12.9454V8.03081C4.34483 5.98898 6.00085 4.33296 8.04268 4.33296H12.9573C14.9992 4.33296 16.6552 5.98898 16.6552 8.03081V12.9454Z" fill="#464646"/>
</svg>
