<svg width="37" height="37" viewBox="0 0 37 37" fill="none" xmlns="http://www.w3.org/2000/svg">
<g clip-path="url(#clip0)">
<path d="M18.5 0C8.28265 0 0 8.3321 0 18.6105C0 27.8999 6.76625 35.6008 15.6136 37V23.9864H10.918V18.6105H15.6136V14.5075C15.6136 9.84703 18.3745 7.26955 22.5995 7.26955C24.6283 7.26955 26.7408 7.63776 26.7408 7.63776V12.2141H24.4087C22.108 12.2141 21.3968 13.6449 21.3968 15.1177V18.6105H26.5317L25.7159 23.9864H21.4073V36.9895C30.2547 35.5903 37.0209 27.8894 37.0209 18.5999C37 8.3321 28.7174 0 18.5 0Z" fill="white"/>
</g>
<defs>
<clipPath id="clip0">
<rect width="37" height="37" fill="white"/>
</clipPath>
</defs>
</svg>
