<svg width="44" height="43" viewBox="0 0 44 43" fill="none" xmlns="http://www.w3.org/2000/svg">
<g clip-path="url(#clip0)">
<path d="M27.5307 11.2422H17.4674C14.5991 11.2422 12.2656 13.5757 12.2656 16.444V26.5073C12.2656 29.3756 14.5991 31.7091 17.4674 31.7091H27.5307C30.399 31.7091 32.7326 29.3756 32.7326 26.5073V16.444C32.7326 13.5757 30.399 11.2422 27.5307 11.2422ZM22.6085 27.6741C19.1811 27.6741 16.3979 24.8909 16.3979 21.4635C16.3979 18.0361 19.1811 15.2529 22.6085 15.2529C26.0358 15.2529 28.819 18.0361 28.819 21.4635C28.8069 24.8909 26.0237 27.6741 22.6085 27.6741ZM29.1715 16.3225C28.3572 16.3225 27.6887 15.6662 27.6887 14.8397C27.6887 14.0254 28.345 13.3569 29.1715 13.3569C29.9858 13.3569 30.6543 14.0132 30.6543 14.8397C30.6543 15.6662 29.9858 16.3225 29.1715 16.3225Z" fill="white"/>
<path d="M22.6071 17.4893C20.4194 17.4893 18.6328 19.2759 18.6328 21.4635C18.6328 23.6512 20.4194 25.4378 22.6071 25.4378C24.7948 25.4378 26.5814 23.6512 26.5814 21.4635C26.5814 19.2759 24.7948 17.4893 22.6071 17.4893Z" fill="white"/>
<path d="M22.498 0C10.6238 0 0.998047 9.62578 0.998047 21.5C0.998047 33.3742 10.6238 43 22.498 43C34.3723 43 43.998 33.3742 43.998 21.5C43.998 9.62578 34.3723 0 22.498 0ZM35.1015 26.5073C35.1015 30.6882 31.6984 34.0791 27.5297 34.0791H17.4664C13.2855 34.0791 9.8946 30.6882 9.8946 26.5073V16.444C9.8946 12.2631 13.2855 8.87224 17.4664 8.87224H27.5297C31.7106 8.87224 35.1015 12.2631 35.1015 16.444V26.5073Z" fill="white"/>
</g>
<defs>
<clipPath id="clip0">
<rect width="43" height="43" fill="white" transform="translate(0.998047)"/>
</clipPath>
</defs>
</svg>
