<svg width="37" height="37" viewBox="0 0 37 37" fill="none" xmlns="http://www.w3.org/2000/svg">
<path d="M22.8304 9.67383H14.1713C11.7032 9.67383 9.69531 11.6817 9.69531 14.1498V22.8089C9.69531 25.277 11.7032 27.2849 14.1713 27.2849H22.8304C25.2985 27.2849 27.3064 25.277 27.3064 22.8089V14.1498C27.3064 11.6817 25.2985 9.67383 22.8304 9.67383ZM18.595 23.8129C15.6458 23.8129 13.251 21.418 13.251 18.4689C13.251 15.5198 15.6458 13.1249 18.595 13.1249C21.5441 13.1249 23.9389 15.5198 23.9389 18.4689C23.9285 21.418 21.5336 23.8129 18.595 23.8129ZM24.2422 14.0452C23.5416 14.0452 22.9664 13.4805 22.9664 12.7694C22.9664 12.0687 23.5311 11.4935 24.2422 11.4935C24.9429 11.4935 25.5181 12.0582 25.5181 12.7694C25.5181 13.4805 24.9429 14.0452 24.2422 14.0452Z" fill="white"/>
<path d="M18.5936 15.0488C16.7111 15.0488 15.1738 16.5861 15.1738 18.4686C15.1738 20.351 16.7111 21.8883 18.5936 21.8883C20.476 21.8883 22.0133 20.351 22.0133 18.4686C22.0133 16.5861 20.476 15.0488 18.5936 15.0488Z" fill="white"/>
<path d="M18.5 0C8.28265 0 0 8.28265 0 18.5C0 28.7174 8.28265 37 18.5 37C28.7174 37 37 28.7174 37 18.5C37 8.28265 28.7174 0 18.5 0ZM29.3448 22.8086C29.3448 26.4062 26.4166 29.3239 22.8296 29.3239H14.1704C10.5729 29.3239 7.65517 26.4062 7.65517 22.8086V14.1495C7.65517 10.552 10.5729 7.63426 14.1704 7.63426H22.8296C26.4271 7.63426 29.3448 10.552 29.3448 14.1495V22.8086Z" fill="white"/>
</svg>
