<svg width="43" height="43" viewBox="0 0 43 43" fill="none" xmlns="http://www.w3.org/2000/svg">
<path d="M26.5327 11.2422H16.4694C13.6011 11.2422 11.2676 13.5757 11.2676 16.444V26.5073C11.2676 29.3756 13.6011 31.7091 16.4694 31.7091H26.5327C29.401 31.7091 31.7345 29.3756 31.7345 26.5073V16.444C31.7345 13.5757 29.401 11.2422 26.5327 11.2422ZM21.6104 27.6741C18.1831 27.6741 15.3999 24.8909 15.3999 21.4635C15.3999 18.0361 18.1831 15.2529 21.6104 15.2529C25.0378 15.2529 27.821 18.0361 27.821 21.4635C27.8088 24.8909 25.0256 27.6741 21.6104 27.6741ZM28.1735 16.3225C27.3592 16.3225 26.6907 15.6662 26.6907 14.8397C26.6907 14.0254 27.347 13.3569 28.1735 13.3569C28.9878 13.3569 29.6562 14.0132 29.6562 14.8397C29.6562 15.6662 28.9878 16.3225 28.1735 16.3225Z" fill="#479C47"/>
<path d="M21.609 17.4893C19.4214 17.4893 17.6348 19.2759 17.6348 21.4635C17.6348 23.6512 19.4214 25.4378 21.609 25.4378C23.7967 25.4378 25.5833 23.6512 25.5833 21.4635C25.5833 19.2759 23.7967 17.4893 21.609 17.4893Z" fill="#479C47"/>
<path d="M21.5 0C9.62578 0 0 9.62578 0 21.5C0 33.3742 9.62578 43 21.5 43C33.3742 43 43 33.3742 43 21.5C43 9.62578 33.3742 0 21.5 0ZM34.1034 26.5073C34.1034 30.6882 30.7004 34.0791 26.5317 34.0791H16.4683C12.2875 34.0791 8.89655 30.6882 8.89655 26.5073V16.444C8.89655 12.2631 12.2875 8.87224 16.4683 8.87224H26.5317C30.7125 8.87224 34.1034 12.2631 34.1034 16.444V26.5073Z" fill="#479C47"/>
</svg>
