<svg width="21" height="21" viewBox="0 0 21 21" fill="none" xmlns="http://www.w3.org/2000/svg">
<g clip-path="url(#clip0)">
<path d="M10.5 0C4.70096 0 0 4.72903 0 10.5627C0 15.8351 3.84031 20.2059 8.86179 21V13.6139H6.19672V10.5627H8.86179V8.23401C8.86179 5.58885 10.4288 4.12596 12.8267 4.12596C13.9782 4.12596 15.1772 4.33495 15.1772 4.33495V6.93233H13.8536C12.5478 6.93233 12.1441 7.74438 12.1441 8.58032V10.5627H15.0585L14.5955 13.6139H12.1501V20.994C17.1716 20.1999 21.0119 15.8291 21.0119 10.5567C21 4.72903 16.299 0 10.5 0Z" fill="#464646"/>
</g>
<defs>
<clipPath id="clip0">
<rect width="21" height="21" fill="white"/>
</clipPath>
</defs>
</svg>
